<?xml version="1.0" encoding="UTF-8" standalone="no"?><!DOCTYPE svg PUBLIC "-//W3C//DTD SVG 1.1//EN" "http://www.w3.org/Graphics/SVG/1.1/DTD/svg11.dtd"><svg width="100%" height="100%" viewBox="0 0 596 842" version="1.1" xmlns="http://www.w3.org/2000/svg" xmlns:xlink="http://www.w3.org/1999/xlink" xml:space="preserve" style="fill-rule:evenodd;clip-rule:evenodd;stroke-linejoin:round;stroke-miterlimit:1.41421;"><path d="M51.353,0l8.71,15.91l13.666,1.2l0,25.465l-9.573,0.049c0.002,0.087 0.003,0.173 0.003,0.259c0,5.807 -4.714,10.521 -10.52,10.521c-5.806,0 -10.52,-4.714 -10.52,-10.521c0,-0.05 0,-0.1 0.001,-0.151l-6.066,0.031l0,0.002l-0.189,-0.001l-0.19,0.001l0,-0.002l-7.037,-0.036c0.001,0.052 0.002,0.104 0.002,0.156c0,5.807 -4.714,10.521 -10.52,10.521c-5.807,0 -10.521,-4.714 -10.521,-10.521c0,-0.088 0.002,-0.176 0.004,-0.263l-8.603,-0.045l0,-26.665l13.666,0l8.711,-15.91l28.976,0Z"/></svg>